<svg width="207" height="206" viewBox="0 0 207 206" fill="none" xmlns="http://www.w3.org/2000/svg">
<path fill-rule="evenodd" clip-rule="evenodd" d="M85.684 1.51498C64.263 5.41898 44.945 15.466 30.133 30.406C-9.83202 70.715 -10.073 134.713 29.588 174.922C44.471 190.01 61.437 199.412 82.18 204.066C91.158 206.081 118.387 205.766 126.68 203.552C147.837 197.902 162.527 189.433 177.18 174.437C206.606 144.322 214.481 101.256 197.752 61.932C192.578 49.77 185.492 39.549 175.149 29.329C152.193 6.64798 117.204 -4.23002 85.684 1.51498ZM109.714 48.855L111.68 51.778V73.355V94.932H133.045C152.839 94.932 154.596 95.078 156.933 96.916C162.428 101.238 160.761 108.982 153.928 110.88C151.867 111.452 141.518 111.923 130.93 111.926L111.68 111.932V133.243C111.68 153.05 111.541 154.704 109.714 156.665C105.894 160.766 100.492 160.793 96.708 156.731C94.802 154.686 94.68 153.27 94.68 133.243V111.932L75.43 111.926C64.842 111.923 54.493 111.452 52.432 110.88C45.599 108.982 43.932 101.238 49.427 96.916C51.764 95.078 53.521 94.932 73.315 94.932H94.68V73.355V51.778L96.708 48.855C100.501 45.062 105.921 45.062 109.714 48.855Z" fill="#287EFF"/>
</svg>
