<svg width="239" height="46" viewBox="0 0 239 46" fill="none" xmlns="http://www.w3.org/2000/svg">
<path fill-rule="evenodd" clip-rule="evenodd" d="M11 1.2773C8.28 2.6493 6.146 7.5973 6.056 12.7363C6.006 15.6683 5.706 15.9863 3 15.9863C0.238 15.9863 0 16.2643 0 19.4863C0 22.7083 0.238 22.9863 3 22.9863H6V33.9863V44.9863H10.5H15V33.9863V22.9863H18.5C21.833 22.9863 22 22.8193 22 19.4863C22 16.1423 21.842 15.9863 18.443 15.9863H14.885L15.193 11.7363C15.481 7.7473 15.699 7.4673 18.75 7.1733C21.725 6.8863 22 6.5693 22 3.4233C22 0.0442975 21.928 -0.0137029 17.75 0.00129706C15.413 0.00929706 12.375 0.583298 11 1.2773ZM115.25 0.692297L113 1.1253V23.0563V44.9863H117C120.659 44.9863 121 44.7603 121 42.3403V39.6943L123.348 42.2273C128.145 47.4033 137.305 46.1643 140.544 39.9013C142.513 36.0933 142.447 24.7523 140.434 20.8583C137.373 14.9383 126.972 13.3333 123.529 18.2483C122.114 20.2683 122 19.6663 122 10.2093C122 -1.0367 122.267 -0.659703 115.25 0.692297ZM213.75 0.675297C212.15 1.0933 212 3.0183 212 23.0593V44.9863H216H220V37.9863C220 34.1363 220.338 31.0043 220.75 31.0273C221.162 31.0493 223.449 34.1993 225.832 38.0273C230.127 44.9283 230.2 44.9863 234.561 44.9863H238.96L234.48 38.0613C232.016 34.2523 230 30.7223 230 30.2163C230 29.7103 231.8 26.5113 234 23.1073C236.2 19.7033 238 16.7093 238 16.4523C238 16.1963 236.073 15.9863 233.718 15.9863C229.523 15.9863 229.357 16.1163 225.468 22.4843C223.286 26.0573 221.162 28.9823 220.75 28.9843C220.338 28.9853 220 22.4613 220 14.4863C220 0.0812979 219.985 -0.0127026 217.75 0.102297C216.512 0.166297 214.713 0.424297 213.75 0.675297ZM30.315 16.4503C25.886 18.3763 24 22.5673 24 30.4863C24 38.5003 25.699 42.1413 30.503 44.4203C34.666 46.3963 39.189 45.7973 42.102 42.8843C43.966 41.0203 44 41.0223 44 42.9863C44 44.6533 44.667 44.9863 48 44.9863H52V30.4863V15.9863H48C44.542 15.9863 43.989 16.2913 43.921 18.2363C43.878 19.4743 43.612 19.9143 43.331 19.2153C42.679 17.5953 37.654 14.9743 35.3 15.0253C34.31 15.0473 32.067 15.6883 30.315 16.4503ZM65.333 16.0833C58.487 18.0653 54.614 27.1253 56.932 35.7343C58.985 43.3593 67.139 47.3723 75.828 45.0323C79.725 43.9833 79.843 43.8333 78.895 41.1153C77.962 38.4403 77.652 38.3133 73.091 38.7513C68.894 39.1553 68.063 38.9133 66.637 36.8783C64.54 33.8853 64.531 27.1013 66.619 24.1203C68.003 22.1433 68.942 21.8583 73.109 22.1473C77.642 22.4623 78.046 22.2973 78.928 19.7663C79.819 17.2083 79.655 16.9843 76.188 16.0213C71.864 14.8203 69.651 14.8333 65.333 16.0833ZM90.333 16.0833C88.591 16.5883 85.96 18.4343 84.486 20.1853C81.996 23.1443 81.831 23.9193 82.157 31.1023C82.566 40.1123 84.643 43.2743 91.338 45.0773C94.909 46.0393 106.288 45.0313 107.69 43.6293C107.914 43.4053 107.803 42.0473 107.442 40.6123C106.877 38.3613 106.423 38.0993 104.144 38.7083C99.15 40.0423 92.787 39.4153 91.347 37.4453C88.487 33.5343 89.489 32.9863 99.5 32.9863H109V29.0203C109 18.5333 101.006 12.9933 90.333 16.0833ZM153.796 16.6263C144.477 20.4943 143.423 36.8933 152.087 43.2383C158.293 47.7843 169.428 45.6103 173.272 39.1033C175.9 34.6543 175.611 25.1903 172.715 20.8843C169.031 15.4043 161.062 13.6113 153.796 16.6263ZM187.206 16.2453C182.606 17.7193 179.731 22.1863 179.191 28.6973C178.553 36.3873 180.954 41.3013 186.712 44.0883C200.214 50.6253 212.244 37.6343 206.344 22.8873C203.712 16.3093 195.694 13.5263 187.206 16.2453ZM99.733 22.2363C100.271 22.9243 100.959 24.4983 101.262 25.7363C101.786 27.8783 101.528 27.9863 95.906 27.9863C89.521 27.9863 88.78 27.1723 91.557 23.2093C93.285 20.7413 98.114 20.1673 99.733 22.2363ZM42.443 24.2093C44.445 27.0673 44.445 33.9053 42.443 36.7633C41.446 38.1873 39.849 38.9863 38 38.9863C34.265 38.9863 32 35.7773 32 30.4863C32 28.2563 32.701 25.4313 33.557 24.2093C35.643 21.2303 40.357 21.2303 42.443 24.2093ZM132.443 24.2093C133.299 25.4313 134 28.2563 134 30.4863C134 35.7773 131.735 38.9863 128 38.9863C126.151 38.9863 124.554 38.1873 123.557 36.7633C121.498 33.8243 121.507 25.6223 123.571 23.5573C125.904 21.2253 130.595 21.5693 132.443 24.2093ZM165.443 24.2093C166.299 25.4313 167 28.3563 167 30.7093C167 40.3923 156.857 42.1943 154.657 32.9013C153.932 29.8413 155.434 23.9633 157.232 22.8223C159.713 21.2473 163.859 21.9473 165.443 24.2093ZM197.422 23.3053C199.995 25.1873 200.07 34.1463 197.535 36.9473C195.662 39.0173 192.469 39.5713 190.313 38.2003C187.082 36.1463 186.384 26.6583 189.212 23.2363C190.565 21.5983 195.14 21.6373 197.422 23.3053Z" fill="#287EFF"/>
</svg>
